<svg version="1.0" xmlns="http://www.w3.org/2000/svg"
 width="20.48000000pt" height="15.83000000pt" viewBox="0 0 2048.000000 1583.000000"
 preserveAspectRatio="xMidYMid meet">

  <g transform="translate(0.000000,1583.000000) scale(0.100000,-0.100000)"
  fill="#FF0000" stroke="none">
  <path d="M7908 13524 c-15 -8 -35 -28 -43 -44 -13 -26 -15 -771 -15 -6755 l0
  -6725 125 0 125 0 0 5361 0 5362 58 -6 c289 -30 968 -34 1252 -7 953 90 1731
  320 2425 717 783 447 1519 696 2269 768 182 17 480 20 609 5 49 -6 92 -8 98
  -5 13 8 -17 74 -49 109 -141 151 -582 271 -1230 336 -511 51 -856 62 -2002 65
  -945 3 -1168 10 -1605 50 -616 56 -1098 159 -1419 301 -174 77 -325 193 -374
  287 -19 36 -21 37 -25 15 -2 -12 -5 3 -6 35 -1 69 -21 111 -61 132 -37 19 -97
  19 -132 -1z m199 -2126 c-1 -348 -2 -64 -2 632 0 696 1 980 2 633 2 -348 2
  -918 0 -1265z m0 -660 c-3 -8 -6 -5 -6 6 -1 11 2 17 5 13 3 -3 4 -12 1 -19z"/>
  </g>
</svg>
